<svg xmlns="http://www.w3.org/2000/svg" xmlns:xlink="http://www.w3.org/1999/xlink" width="2000" zoomAndPan="magnify" viewBox="0 0 1500 1499.999933" height="2000" preserveAspectRatio="xMidYMid meet" version="1.0"><defs><clipPath id="f82683d482"><path d="M 39 35.210938 L 1461 35.210938 L 1461 1464.710938 L 39 1464.710938 Z M 39 35.210938 " clip-rule="nonzero"/></clipPath></defs><g clip-path="url(#f82683d482)"><path fill="#00e5a0" d="M 39.023438 1457.15625 L 515.546875 1457.15625 L 515.546875 988.257812 C 515.546875 1251.296875 729.027344 1464.78125 992.070312 1464.78125 L 1460.96875 1464.78125 L 1460.96875 988.257812 L 984.445312 988.257812 C 1243.671875 988.257812 1460.96875 774.773438 1460.96875 511.734375 C 1460.96875 248.691406 1243.671875 35.210938 984.445312 35.210938 L 39.023438 35.210938 L 39.023438 511.734375 L 515.546875 511.734375 C 252.503906 511.734375 39.023438 725.214844 39.023438 988.257812 Z M 515.546875 988.257812 L 515.546875 511.734375 L 984.445312 511.734375 L 984.445312 988.257812 Z M 515.546875 988.257812 " fill-opacity="1" fill-rule="evenodd"/></g></svg>