<svg xmlns="http://www.w3.org/2000/svg" xmlns:xlink="http://www.w3.org/1999/xlink" width="2000" zoomAndPan="magnify" viewBox="0 0 1500 1499.999933" height="2000" preserveAspectRatio="xMidYMid meet" version="1.0"><defs><g/><clipPath id="af2e82dfd5"><path d="M 440.804688 336.578125 L 1059.554688 336.578125 L 1059.554688 958.328125 L 440.804688 958.328125 Z M 440.804688 336.578125 " clip-rule="nonzero"/></clipPath></defs><g clip-path="url(#af2e82dfd5)"><path fill="#00e5a0" d="M 440.90625 954.757812 L 648.070312 954.757812 L 648.070312 750.90625 C 648.070312 865.261719 740.882812 958.070312 855.234375 958.070312 L 1059.085938 958.070312 L 1059.085938 750.90625 L 851.921875 750.90625 C 964.617188 750.90625 1059.085938 658.097656 1059.085938 543.742188 C 1059.085938 429.390625 964.617188 336.578125 851.921875 336.578125 L 440.90625 336.578125 L 440.90625 543.742188 L 648.070312 543.742188 C 533.71875 543.742188 440.90625 636.554688 440.90625 750.90625 Z M 648.070312 750.90625 L 648.070312 543.742188 L 851.921875 543.742188 L 851.921875 750.90625 Z M 648.070312 750.90625 " fill-opacity="1" fill-rule="evenodd"/></g><g fill="#ffffff" fill-opacity="1"><g transform="translate(199.17006, 1127.991915)"><g><path d="M 89.234375 -66.640625 C 89.234375 -60.109375 87.570312 -54.035156 84.25 -48.421875 C 80.195312 -41.785156 74.484375 -37.164062 67.109375 -34.5625 L 88.921875 0 L 61.671875 0 L 40.484375 -32.234375 L 28.96875 -32.234375 L 28.96875 0 L 4.671875 0 L 4.671875 -101.21875 L 53.09375 -101.21875 C 64.625 -101.21875 73.757812 -97.425781 80.5 -89.84375 C 86.320312 -83.207031 89.234375 -75.472656 89.234375 -66.640625 Z M 28.96875 -79.421875 L 28.96875 -54.03125 L 52.9375 -54.03125 C 56.257812 -54.03125 58.910156 -54.5 60.890625 -55.4375 C 62.546875 -56.375 63.738281 -57.253906 64.46875 -58.078125 C 65.507812 -59.328125 66.285156 -60.78125 66.796875 -62.4375 C 67.210938 -63.894531 67.421875 -65.296875 67.421875 -66.640625 C 67.421875 -68.097656 67.210938 -69.550781 66.796875 -71 C 66.179688 -72.664062 65.300781 -74.125 64.15625 -75.375 C 61.875 -78.070312 58.1875 -79.421875 53.09375 -79.421875 Z M 28.96875 -79.421875 "/></g></g></g><g fill="#ffffff" fill-opacity="1"><g transform="translate(302.871593, 1127.991915)"><g><path d="M 81.90625 -36.59375 C 82.007812 -34.414062 82.007812 -33.117188 81.90625 -32.703125 L 23.359375 -32.859375 C 24.191406 -30.472656 25.695312 -28.1875 27.875 -26 C 31.925781 -22.164062 36.597656 -20.25 41.890625 -20.25 C 47.492188 -20.457031 52.164062 -22.425781 55.90625 -26.15625 L 56.53125 -26.78125 L 76.765625 -20.40625 C 72.304688 -13.445312 67.632812 -8.460938 62.75 -5.453125 C 57.25 -1.921875 50.347656 -0.101562 42.046875 0 C 31.035156 0.101562 21.585938 -3.734375 13.703125 -11.515625 C 5.816406 -19.304688 1.820312 -28.753906 1.71875 -39.859375 C 1.613281 -50.867188 5.453125 -60.316406 13.234375 -68.203125 C 21.023438 -76.097656 30.472656 -80.09375 41.578125 -80.1875 C 52.578125 -80.289062 62.023438 -76.453125 69.921875 -68.671875 C 77.804688 -60.890625 81.800781 -51.441406 81.90625 -40.328125 Z M 41.734375 -59.796875 C 36.234375 -59.796875 31.5625 -57.875 27.71875 -54.03125 C 25.75 -51.851562 24.347656 -49.675781 23.515625 -47.5 L 60.109375 -47.5 C 59.273438 -49.675781 57.820312 -51.90625 55.75 -54.1875 C 51.800781 -57.925781 47.128906 -59.796875 41.734375 -59.796875 Z M 41.734375 -59.796875 "/></g></g></g><g fill="#ffffff" fill-opacity="1"><g transform="translate(396.296447, 1127.991915)"><g><path d="M 37.0625 0 C 31.664062 0 26.941406 -0.828125 22.890625 -2.484375 C 19.671875 -3.628906 16.347656 -5.757812 12.921875 -8.875 C 7.003906 -14.375 4.304688 -21.332031 4.828125 -29.75 L 4.828125 -31.453125 L 22.265625 -31.140625 L 23.671875 -31.140625 L 23.671875 -29.890625 C 23.773438 -27.296875 24.34375 -25.171875 25.375 -23.515625 C 27.144531 -20.503906 31.039062 -19 37.0625 -19 C 42.039062 -19 45.625 -19.566406 47.8125 -20.703125 C 48.945312 -21.222656 49.722656 -21.898438 50.140625 -22.734375 C 50.347656 -23.046875 50.453125 -23.359375 50.453125 -23.671875 L 50.609375 -24.453125 C 50.609375 -26.628906 48.894531 -28.394531 45.46875 -29.75 C 44.125 -30.257812 42.566406 -30.671875 40.796875 -30.984375 C 39.453125 -31.296875 37.945312 -31.554688 36.28125 -31.765625 C 30.050781 -32.390625 24.859375 -33.632812 20.703125 -35.5 C 16.554688 -37.164062 13.132812 -39.453125 10.4375 -42.359375 C 6.695312 -46.609375 4.828125 -51.488281 4.828125 -57 C 4.828125 -60.414062 5.453125 -63.578125 6.703125 -66.484375 C 7.628906 -68.773438 8.875 -70.800781 10.4375 -72.5625 C 16.039062 -79 25.019531 -82.21875 37.375 -82.21875 C 44.738281 -82.21875 50.96875 -80.765625 56.0625 -77.859375 C 60 -75.679688 63.164062 -72.722656 65.5625 -68.984375 C 67.425781 -66.179688 68.722656 -62.910156 69.453125 -59.171875 C 69.660156 -57.921875 69.816406 -56.726562 69.921875 -55.59375 L 69.921875 -52.328125 L 51.078125 -52.328125 L 51.078125 -54.65625 C 50.972656 -55.070312 50.921875 -55.488281 50.921875 -55.90625 C 50.609375 -57.039062 50.191406 -57.972656 49.671875 -58.703125 C 47.390625 -61.816406 43.289062 -63.375 37.375 -63.375 C 28.65625 -63.375 24.296875 -61.554688 24.296875 -57.921875 C 24.296875 -56.054688 25.332031 -54.550781 27.40625 -53.40625 C 29.582031 -52.0625 33.269531 -51.078125 38.46875 -50.453125 C 50.40625 -49.203125 59.070312 -45.410156 64.46875 -39.078125 C 68.101562 -34.828125 69.921875 -29.953125 69.921875 -24.453125 L 69.921875 -23.359375 L 69.765625 -21.953125 C 69.765625 -20.609375 69.609375 -19.363281 69.296875 -18.21875 C 68.460938 -14.894531 66.90625 -11.9375 64.625 -9.34375 C 62.03125 -6.226562 58.394531 -3.890625 53.71875 -2.328125 C 49.050781 -0.773438 43.5 0 37.0625 0 Z M 37.0625 0 "/></g></g></g><g fill="#ffffff" fill-opacity="1"><g transform="translate(480.690323, 1127.991915)"><g><path d="M 4.671875 -80.5 L 24.921875 -80.5 L 24.921875 -40.015625 C 24.921875 -38.460938 25.175781 -36.695312 25.6875 -34.71875 C 26.3125 -32.332031 27.25 -30.15625 28.5 -28.1875 C 31.925781 -23 36.804688 -20.40625 43.140625 -20.40625 C 50.085938 -20.40625 55.117188 -23.050781 58.234375 -28.34375 C 59.378906 -30.207031 60.210938 -32.382812 60.734375 -34.875 C 61.148438 -36.644531 61.359375 -38.410156 61.359375 -40.171875 L 61.359375 -80.5 L 83.15625 -80.5 L 83.15625 0 L 61.359375 0 L 61.359375 -8.40625 C 56.265625 -2.800781 49.722656 0 41.734375 0 C 31.453125 0.101562 22.734375 -3.582031 15.578125 -11.0625 C 8.304688 -18.425781 4.671875 -27.5625 4.671875 -38.46875 Z M 4.671875 -80.5 "/></g></g></g><g fill="#ffffff" fill-opacity="1"><g transform="translate(578.31929, 1127.991915)"><g><path d="M 102.78125 -80.34375 C 113.570312 -80.445312 122.34375 -77.234375 129.09375 -70.703125 C 136.351562 -63.847656 139.984375 -54.242188 139.984375 -41.890625 L 139.984375 0 L 119.75 0 L 119.75 -40.484375 C 119.75 -42.046875 119.488281 -43.8125 118.96875 -45.78125 C 118.238281 -48.164062 117.253906 -50.296875 116.015625 -52.171875 C 112.691406 -57.460938 107.8125 -60.109375 101.375 -60.109375 C 94.519531 -60.109375 89.535156 -57.460938 86.421875 -52.171875 C 85.285156 -50.191406 84.457031 -47.957031 83.9375 -45.46875 C 83.519531 -43.707031 83.3125 -41.941406 83.3125 -40.171875 L 83.3125 0 L 62.90625 0 L 62.90625 -40.484375 C 62.90625 -42.046875 62.644531 -43.8125 62.125 -45.78125 C 61.507812 -48.164062 60.578125 -50.296875 59.328125 -52.171875 C 55.898438 -57.460938 51.019531 -60.109375 44.6875 -60.109375 C 37.738281 -60.109375 32.707031 -57.460938 29.59375 -52.171875 C 28.445312 -50.191406 27.613281 -47.957031 27.09375 -45.46875 C 26.675781 -43.707031 26.46875 -41.941406 26.46875 -40.171875 L 26.46875 0 L 4.671875 0 L 4.671875 -80.5 L 26.46875 -80.5 L 26.46875 -72.09375 C 31.5625 -77.59375 38.101562 -80.34375 46.09375 -80.34375 C 57.820312 -80.550781 67.320312 -76.035156 74.59375 -66.796875 L 81.125 -72.875 C 87.25 -77.851562 94.46875 -80.34375 102.78125 -80.34375 Z M 102.78125 -80.34375 "/></g></g></g><g fill="#ffffff" fill-opacity="1"><g transform="translate(732.781281, 1127.991915)"><g><path d="M 81.90625 -36.59375 C 82.007812 -34.414062 82.007812 -33.117188 81.90625 -32.703125 L 23.359375 -32.859375 C 24.191406 -30.472656 25.695312 -28.1875 27.875 -26 C 31.925781 -22.164062 36.597656 -20.25 41.890625 -20.25 C 47.492188 -20.457031 52.164062 -22.425781 55.90625 -26.15625 L 56.53125 -26.78125 L 76.765625 -20.40625 C 72.304688 -13.445312 67.632812 -8.460938 62.75 -5.453125 C 57.25 -1.921875 50.347656 -0.101562 42.046875 0 C 31.035156 0.101562 21.585938 -3.734375 13.703125 -11.515625 C 5.816406 -19.304688 1.820312 -28.753906 1.71875 -39.859375 C 1.613281 -50.867188 5.453125 -60.316406 13.234375 -68.203125 C 21.023438 -76.097656 30.472656 -80.09375 41.578125 -80.1875 C 52.578125 -80.289062 62.023438 -76.453125 69.921875 -68.671875 C 77.804688 -60.890625 81.800781 -51.441406 81.90625 -40.328125 Z M 41.734375 -59.796875 C 36.234375 -59.796875 31.5625 -57.875 27.71875 -54.03125 C 25.75 -51.851562 24.347656 -49.675781 23.515625 -47.5 L 60.109375 -47.5 C 59.273438 -49.675781 57.820312 -51.90625 55.75 -54.1875 C 51.800781 -57.925781 47.128906 -59.796875 41.734375 -59.796875 Z M 41.734375 -59.796875 "/></g></g></g><g fill="#ffffff" fill-opacity="1"><g transform="translate(826.206169, 1127.991915)"><g><path d="M 112.421875 -101.21875 L 112.421875 0 L 88.140625 0 L 88.140625 -56.6875 L 58.078125 -37.53125 L 28.96875 -56.53125 L 28.96875 0 L 4.671875 0 L 4.671875 -101.21875 L 58.390625 -66.484375 Z M 112.421875 -101.21875 "/></g></g></g><g fill="#ffffff" fill-opacity="1"><g transform="translate(953.108041, 1127.991915)"><g><path d="M 62.28125 -80.5 L 84.09375 -80.5 L 84.09375 0 L 62.28125 0 L 62.28125 -9.03125 C 57.820312 -3.21875 51.078125 -0.3125 42.046875 -0.3125 C 31.035156 -0.207031 21.585938 -4.046875 13.703125 -11.828125 C 5.816406 -19.617188 1.820312 -29.066406 1.71875 -40.171875 C 1.613281 -51.179688 5.453125 -60.628906 13.234375 -68.515625 C 21.023438 -76.398438 30.472656 -80.394531 41.578125 -80.5 C 50.710938 -80.5 57.613281 -77.539062 62.28125 -71.625 Z M 55.75 -26.46875 C 59.59375 -30.3125 61.515625 -34.984375 61.515625 -40.484375 C 61.515625 -46.085938 59.539062 -50.757812 55.59375 -54.5 C 51.644531 -58.445312 47.023438 -60.316406 41.734375 -60.109375 C 36.234375 -60.109375 31.5625 -58.1875 27.71875 -54.34375 C 23.875 -50.5 21.953125 -45.828125 21.953125 -40.328125 C 21.953125 -34.929688 23.925781 -30.257812 27.875 -26.3125 C 31.71875 -22.476562 36.390625 -20.5625 41.890625 -20.5625 C 47.492188 -20.757812 52.113281 -22.726562 55.75 -26.46875 Z M 55.75 -26.46875 "/></g></g></g><g fill="#ffffff" fill-opacity="1"><g transform="translate(1051.671235, 1127.991915)"><g><path d="M 62.4375 -80.1875 L 62.4375 -58.390625 L 44.53125 -58.390625 L 44.53125 0 L 22.734375 0 L 22.734375 -58.390625 L 4.671875 -58.390625 L 4.671875 -80.1875 L 22.734375 -80.1875 L 22.734375 -108.21875 L 44.53125 -108.21875 L 44.53125 -80.1875 Z M 62.4375 -80.1875 "/></g></g></g><g fill="#ffffff" fill-opacity="1"><g transform="translate(1128.591181, 1127.991915)"><g><path d="M 68.828125 -9.65625 C 61.242188 -3.21875 52.421875 0 42.359375 0 C 31.242188 -0.101562 21.796875 -4.097656 14.015625 -11.984375 C 6.222656 -19.878906 2.378906 -29.328125 2.484375 -40.328125 C 2.585938 -51.441406 6.585938 -60.890625 14.484375 -68.671875 C 22.367188 -76.453125 31.816406 -80.289062 42.828125 -80.1875 C 52.785156 -80.09375 61.503906 -76.773438 68.984375 -70.234375 L 54.5 -55.90625 C 50.96875 -58.5 47.023438 -59.796875 42.671875 -59.796875 C 37.265625 -59.796875 32.59375 -57.925781 28.65625 -54.1875 C 24.8125 -50.34375 22.890625 -45.671875 22.890625 -40.171875 C 22.679688 -34.773438 24.550781 -30.101562 28.5 -26.15625 C 32.238281 -22.425781 36.910156 -20.457031 42.515625 -20.25 C 46.867188 -20.25 50.8125 -21.546875 54.34375 -24.140625 Z M 68.828125 -9.65625 "/></g></g></g><g fill="#ffffff" fill-opacity="1"><g transform="translate(1209.715228, 1127.991915)"><g><path d="M 86.421875 0 L 66.1875 0 L 66.1875 -39.546875 L 66.03125 -39.546875 L 66.03125 -40.015625 C 66.03125 -45.410156 64.109375 -50.03125 60.265625 -53.875 C 56.421875 -57.71875 51.75 -59.640625 46.25 -59.640625 C 40.851562 -59.640625 36.179688 -57.664062 32.234375 -53.71875 C 28.285156 -49.78125 26.414062 -45.109375 26.625 -39.703125 L 26.625 -39.546875 L 26.46875 -39.546875 L 26.46875 0 L 4.671875 0 L 4.671875 -101.21875 L 26.46875 -101.21875 L 26.46875 -70.078125 C 31.351562 -75.890625 37.894531 -79.160156 46.09375 -79.890625 C 57.507812 -80.816406 66.957031 -77.851562 74.4375 -71 C 82.425781 -63.632812 86.421875 -53.304688 86.421875 -40.015625 Z M 86.421875 0 "/></g></g></g></svg>